<svg width="113" height="33" viewBox="0 0 113 33" fill="none" xmlns="http://www.w3.org/2000/svg">
<path d="M112.372 28.8797C112.372 30.6193 110.934 32.0285 109.154 32.0285H3.84983C2.07138 32.0285 0.627808 30.6193 0.627808 28.8797V3.76885C0.627808 2.03001 2.07138 0.615921 3.84983 0.615921H109.154C110.934 0.615921 112.371 2.03001 112.371 3.76885L112.372 28.8797Z" fill="black"/>
<path d="M108.815 0.653904C110.753 0.653904 112.329 2.19125 112.329 4.08055V28.5639C112.329 30.4532 110.753 31.9905 108.815 31.9905H4.18519C2.24744 31.9905 0.670676 30.4532 0.670676 28.5639V4.08055C0.670676 2.19125 2.24744 0.653904 4.18519 0.653904H108.815ZM108.815 -3.54685e-06H4.18519C1.88438 -3.54685e-06 0 1.83727 0 4.08055V28.5639C0 30.8072 1.88438 32.6444 4.18519 32.6444H108.815C111.116 32.6444 113 30.8072 113 28.5639V4.08055C113 1.83727 111.116 -3.54685e-06 108.815 -3.54685e-06Z" fill="#A6A6A6"/>
<path d="M25.2183 16.1459C25.194 13.5156 27.4272 12.2359 27.5294 12.1764C26.2646 10.3785 24.3042 10.1328 23.6154 10.1132C21.9689 9.9443 20.3718 11.0738 19.5331 11.0738C18.6777 11.0738 17.3861 10.1296 15.9941 10.1573C14.2029 10.1842 12.5271 11.1954 11.6081 12.7656C9.71134 15.9672 11.1259 20.6721 12.9431 23.26C13.8522 24.5274 14.9144 25.9425 16.3047 25.8927C17.6649 25.8381 18.1729 25.0472 19.8144 25.0472C21.4407 25.0472 21.9179 25.8927 23.3358 25.8609C24.7956 25.8381 25.7147 24.5878 26.5919 23.3089C27.6423 21.8563 28.0642 20.4256 28.081 20.3522C28.0466 20.3407 25.2459 19.2986 25.2183 16.1459Z" fill="white"/>
<path d="M22.5398 8.41082C23.2713 7.51881 23.7719 6.30526 23.6329 5.07375C22.5741 5.11945 21.2499 5.78784 20.4874 6.66027C19.8127 7.42904 19.21 8.68912 19.3657 9.87411C20.5552 9.96062 21.7764 9.28896 22.5398 8.41082Z" fill="white"/>
<path d="M44.9028 25.7107H43.0019L41.9606 22.5206H38.3413L37.3494 25.7107H35.4987L39.0846 14.8499H41.2994L44.9028 25.7107ZM41.6468 21.1821L40.7051 18.3462C40.6055 18.0564 40.4188 17.3742 40.1434 16.3002H40.11C40.0003 16.7621 39.8237 17.4443 39.5809 18.3462L38.656 21.1821H41.6468Z" fill="white"/>
<path d="M54.1245 21.6988C54.1245 23.0306 53.7553 24.0834 53.0171 24.8563C52.3558 25.5443 51.5347 25.8879 50.5545 25.8879C49.4965 25.8879 48.7365 25.5173 48.2736 24.7763H48.2401V28.9018H46.4555V20.4575C46.4555 19.6201 46.4329 18.7608 46.3894 17.8794H47.9588L48.0585 19.1207H48.0919C48.6871 18.1854 49.5902 17.7186 50.8023 17.7186C51.7498 17.7186 52.5408 18.0834 53.1736 18.8138C53.8081 19.545 54.1245 20.5064 54.1245 21.6988ZM52.3064 21.7624C52.3064 21.0002 52.1306 20.3718 51.7774 19.8772C51.3915 19.3614 50.8734 19.1035 50.2239 19.1035C49.7836 19.1035 49.3835 19.2472 49.0261 19.5303C48.6678 19.816 48.4334 20.189 48.3238 20.6509C48.2685 20.8663 48.2409 21.0426 48.2409 21.1813V22.4871C48.2409 23.0568 48.4201 23.5375 48.7783 23.93C49.1366 24.3226 49.602 24.5184 50.1745 24.5184C50.8466 24.5184 51.3698 24.2654 51.7439 23.7611C52.1189 23.2559 52.3064 22.5899 52.3064 21.7624Z" fill="white"/>
<path d="M63.3628 21.6988C63.3628 23.0306 62.9937 24.0834 62.2546 24.8563C61.5942 25.5443 60.773 25.8879 59.7929 25.8879C58.7348 25.8879 57.9748 25.5173 57.5128 24.7763H57.4793V28.9018H55.6947V20.4575C55.6947 19.6201 55.6721 18.7608 55.6286 17.8794H57.198L57.2977 19.1207H57.3311C57.9254 18.1854 58.8286 17.7186 60.0415 17.7186C60.9882 17.7186 61.7792 18.0834 62.4136 18.8138C63.0456 19.545 63.3628 20.5064 63.3628 21.6988ZM61.5448 21.7624C61.5448 21.0002 61.3682 20.3718 61.0149 19.8772C60.6291 19.3614 60.1126 19.1035 59.4622 19.1035C59.0211 19.1035 58.6218 19.2472 58.2636 19.5303C57.9053 19.816 57.6718 20.189 57.5622 20.6509C57.5077 20.8663 57.4793 21.0426 57.4793 21.1813V22.4871C57.4793 23.0568 57.6584 23.5375 58.015 23.93C58.3732 24.3217 58.8386 24.5184 59.4128 24.5184C60.085 24.5184 60.6081 24.2654 60.9823 23.7611C61.3573 23.2559 61.5448 22.5899 61.5448 21.7624Z" fill="white"/>
<path d="M73.6919 22.665C73.6919 23.5889 73.3629 24.3405 72.7025 24.9207C71.9768 25.5549 70.9665 25.8715 69.6683 25.8715C68.4696 25.8715 67.5087 25.6463 66.7813 25.195L67.1948 23.7447C67.9783 24.2067 68.8379 24.4384 69.7746 24.4384C70.4467 24.4384 70.9698 24.2899 71.3457 23.9945C71.7198 23.699 71.9065 23.3024 71.9065 22.8078C71.9065 22.3671 71.7525 21.9958 71.4436 21.6947C71.1364 21.3935 70.6233 21.1136 69.9068 20.8549C67.9565 20.1457 66.9822 19.1068 66.9822 17.7406C66.9822 16.8478 67.3237 16.1157 68.0076 15.5461C68.6889 14.9756 69.5979 14.6908 70.7346 14.6908C71.7483 14.6908 72.5904 14.863 73.2625 15.2066L72.8163 16.625C72.1886 16.292 71.4788 16.1255 70.6844 16.1255C70.0566 16.1255 69.5661 16.2765 69.2146 16.5768C68.9174 16.8453 68.7684 17.1726 68.7684 17.5602C68.7684 17.9895 68.9384 18.3445 69.2799 18.6236C69.577 18.8815 70.1169 19.1606 70.9004 19.4618C71.8588 19.838 72.5627 20.2779 73.0156 20.7823C73.4667 21.285 73.6919 21.9142 73.6919 22.665Z" fill="white"/>
<path d="M79.5921 19.1851H77.6251V22.9874C77.6251 23.9545 77.9716 24.4376 78.6664 24.4376C78.9853 24.4376 79.2498 24.4107 79.4591 24.3568L79.5084 25.6781C79.1569 25.8062 78.694 25.8707 78.1206 25.8707C77.4158 25.8707 76.8651 25.661 76.4675 25.2423C76.0716 24.8228 75.8723 24.1193 75.8723 23.131V19.1835H74.7005V17.8777H75.8723V16.4438L77.6251 15.928V17.8777H79.5921V19.1851Z" fill="white"/>
<path d="M88.4673 21.7306C88.4673 22.9343 88.114 23.9226 87.4092 24.6955C86.6701 25.4912 85.6891 25.8878 84.4662 25.8878C83.2877 25.8878 82.3493 25.5067 81.6496 24.7445C80.9498 23.9822 80.5999 23.02 80.5999 21.8603C80.5999 20.6468 80.9599 19.6528 81.6822 18.8799C82.4029 18.1062 83.3756 17.7194 84.5985 17.7194C85.777 17.7194 86.7254 18.1005 87.441 18.8636C88.1257 19.6038 88.4673 20.5595 88.4673 21.7306ZM86.6157 21.7869C86.6157 21.0646 86.4575 20.4452 86.1369 19.9286C85.7628 19.3035 85.2279 18.9917 84.5349 18.9917C83.8175 18.9917 83.2726 19.3043 82.8984 19.9286C82.5779 20.446 82.4197 21.0752 82.4197 21.8195C82.4197 22.5418 82.5779 23.1612 82.8984 23.677C83.2843 24.3021 83.8234 24.6139 84.5189 24.6139C85.2003 24.6139 85.7352 24.2956 86.121 23.6607C86.45 23.1343 86.6157 22.5083 86.6157 21.7869Z" fill="white"/>
<path d="M94.268 19.4096C94.0913 19.3777 93.903 19.3614 93.7055 19.3614C93.0777 19.3614 92.5922 19.5924 92.2507 20.0551C91.9535 20.4632 91.8045 20.9789 91.8045 21.6016V25.7108H90.0208L90.0375 20.3456C90.0375 19.443 90.0149 18.6212 89.9706 17.8802H91.525L91.5903 19.3786H91.6396C91.828 18.8636 92.1251 18.449 92.5319 18.1381C92.9295 17.8581 93.3589 17.7186 93.8218 17.7186C93.9867 17.7186 94.1357 17.73 94.268 17.7504V19.4096Z" fill="white"/>
<path d="M102.249 21.4245C102.249 21.7363 102.228 21.9991 102.184 22.2137H96.8301C96.851 22.9874 97.1097 23.5791 97.6069 23.9871C98.058 24.3519 98.6415 24.5347 99.358 24.5347C100.151 24.5347 100.874 24.4115 101.524 24.1642L101.804 25.3721C101.044 25.6952 100.146 25.856 99.111 25.856C97.8655 25.856 96.8879 25.4985 96.1764 24.7845C95.4666 24.0704 95.1108 23.1114 95.1108 21.9085C95.1108 20.7276 95.4415 19.7441 96.1036 18.9599C96.7966 18.1225 97.7333 17.7039 98.9118 17.7039C100.069 17.7039 100.946 18.1225 101.541 18.9599C102.012 19.625 102.249 20.4476 102.249 21.4245ZM100.547 20.9732C100.559 20.4574 100.443 20.0118 100.201 19.6356C99.892 19.1517 99.4174 18.9101 98.7787 18.9101C98.1953 18.9101 97.7207 19.1459 97.3583 19.6193C97.0611 19.9955 96.8845 20.4468 96.8301 20.9724H100.547V20.9732Z" fill="white"/>
<path d="M41.0567 8.16846C41.0567 9.12902 40.7612 9.85209 40.1711 10.3377C39.6245 10.7857 38.8477 11.0102 37.8416 11.0102C37.3427 11.0102 36.9158 10.9889 36.5584 10.9465V5.69809C37.0246 5.62464 37.5269 5.5871 38.0693 5.5871C39.0277 5.5871 39.75 5.79031 40.2372 6.19673C40.7829 6.6562 41.0567 7.31317 41.0567 8.16846ZM40.1317 8.19212C40.1317 7.56943 39.9626 7.09201 39.6245 6.75903C39.2863 6.42688 38.7925 6.26039 38.1421 6.26039C37.8659 6.26039 37.6307 6.27834 37.4356 6.31588V10.3059C37.5436 10.3222 37.7411 10.3295 38.0282 10.3295C38.6996 10.3295 39.2177 10.1475 39.5826 9.78354C39.9476 9.41956 40.1317 8.88908 40.1317 8.19212Z" fill="white"/>
<path d="M45.9609 9.00741C45.9609 9.59909 45.7876 10.0839 45.4411 10.4642C45.0778 10.8551 44.5965 11.0501 43.9956 11.0501C43.4163 11.0501 42.9551 10.8633 42.6111 10.4878C42.2679 10.1132 42.0963 9.64072 42.0963 9.07107C42.0963 8.47531 42.2729 7.98646 42.6278 7.60697C42.9827 7.22748 43.4598 7.03732 44.0608 7.03732C44.6401 7.03732 45.1055 7.22421 45.4579 7.59881C45.7927 7.96279 45.9609 8.43287 45.9609 9.00741ZM45.0511 9.03516C45.0511 8.68015 44.9724 8.37574 44.8158 8.12193C44.6317 7.81508 44.3697 7.66165 44.029 7.66165C43.6766 7.66165 43.4088 7.81508 43.2246 8.12193C43.0673 8.37574 42.9894 8.68505 42.9894 9.05067C42.9894 9.40568 43.0681 9.71009 43.2246 9.9639C43.4146 10.2708 43.6792 10.4242 44.0207 10.4242C44.3555 10.4242 44.6183 10.2683 44.8075 9.95574C44.9699 9.69703 45.0511 9.39017 45.0511 9.03516Z" fill="white"/>
<path d="M52.5367 7.11567L51.302 10.9628H50.4985L49.987 9.29224C49.8573 8.8752 49.7518 8.46062 49.6698 8.0493H49.6539C49.5777 8.47205 49.4723 8.88581 49.3367 9.29224L48.7934 10.9628H47.9807L46.8197 7.11567H47.7212L48.1673 8.94457C48.2753 9.37711 48.364 9.78925 48.4352 10.1794H48.4511C48.5164 9.8578 48.6244 9.44812 48.7767 8.95274L49.3367 7.11649H50.0515L50.588 8.91356C50.7178 9.35181 50.8232 9.77374 50.9044 10.1802H50.9287C50.9881 9.78435 51.0777 9.36242 51.1966 8.91356L51.6754 7.11649H52.5367V7.11567Z" fill="white"/>
<path d="M57.0842 10.9628H56.207V8.75932C56.207 8.08032 55.9425 7.74082 55.4118 7.74082C55.1515 7.74082 54.9414 7.83385 54.7782 8.02074C54.6167 8.20763 54.5346 8.42798 54.5346 8.68016V10.962H53.6574V8.21498C53.6574 7.87711 53.6465 7.51067 53.6256 7.11404H54.3965L54.4375 7.71552H54.4618C54.5639 7.52863 54.7163 7.37438 54.9163 7.25115C55.154 7.10752 55.4202 7.03488 55.7115 7.03488C56.0798 7.03488 56.3861 7.15077 56.6297 7.38336C56.9327 7.66818 57.0842 8.09338 57.0842 8.65813V10.9628Z" fill="white"/>
<path d="M59.5033 10.9628H58.627V5.35042H59.5033V10.9628Z" fill="white"/>
<path d="M64.6678 9.00741C64.6678 9.59909 64.4946 10.0839 64.148 10.4642C63.7848 10.8551 63.3026 11.0501 62.7025 11.0501C62.1224 11.0501 61.6612 10.8633 61.318 10.4878C60.9748 10.1132 60.8032 9.64072 60.8032 9.07107C60.8032 8.47531 60.9798 7.98646 61.3347 7.60697C61.6896 7.22748 62.1668 7.03732 62.7669 7.03732C63.347 7.03732 63.8115 7.22421 64.1648 7.59881C64.4996 7.96279 64.6678 8.43287 64.6678 9.00741ZM63.7571 9.03516C63.7571 8.68015 63.6784 8.37574 63.5219 8.12193C63.3386 7.81508 63.0758 7.66165 62.7359 7.66165C62.3827 7.66165 62.1149 7.81508 61.9315 8.12193C61.7742 8.37574 61.6963 8.68505 61.6963 9.05067C61.6963 9.40568 61.775 9.71009 61.9315 9.9639C62.1216 10.2708 62.3861 10.4242 62.7276 10.4242C63.0624 10.4242 63.3244 10.2683 63.5135 9.95574C63.6768 9.69703 63.7571 9.39017 63.7571 9.03516Z" fill="white"/>
<path d="M68.9133 10.9628H68.1256L68.0603 10.5197H68.0361C67.7665 10.873 67.3823 11.0501 66.8835 11.0501C66.511 11.0501 66.2097 10.9334 65.9828 10.7017C65.7769 10.4911 65.674 10.2291 65.674 9.91819C65.674 9.44811 65.8748 9.08984 66.2791 8.84174C66.6826 8.59365 67.2501 8.47205 67.9808 8.47776V8.40594C67.9808 7.89914 67.7079 7.64614 67.1614 7.64614C66.7721 7.64614 66.429 7.74163 66.1326 7.93096L65.9544 7.36948C66.321 7.14831 66.7738 7.03732 67.3078 7.03732C68.3391 7.03732 68.8564 7.5678 68.8564 8.62874V10.0455C68.8564 10.4299 68.8756 10.7359 68.9133 10.9628ZM68.0026 9.64072V9.0474C67.035 9.03108 66.5512 9.28979 66.5512 9.82271C66.5512 10.0235 66.6064 10.1736 66.7194 10.274C66.8324 10.3744 66.9764 10.4242 67.148 10.4242C67.3405 10.4242 67.5205 10.3646 67.6845 10.2463C67.8494 10.1271 67.9507 9.97614 67.9884 9.79088C67.9976 9.74926 68.0026 9.69866 68.0026 9.64072Z" fill="white"/>
<path d="M73.8978 10.9628H73.1194L73.0784 10.345H73.0541C72.8055 10.8151 72.382 11.0501 71.7868 11.0501C71.3114 11.0501 70.9155 10.8681 70.6016 10.5042C70.2877 10.1402 70.1312 9.66765 70.1312 9.08739C70.1312 8.4647 70.3011 7.96034 70.6426 7.57514C70.9732 7.21605 71.3783 7.0365 71.8605 7.0365C72.3903 7.0365 72.7611 7.21034 72.9721 7.55881H72.9888V5.35042H73.8669V9.92635C73.8669 10.3009 73.8769 10.6462 73.8978 10.9628ZM72.9888 9.34038V8.69892C72.9888 8.58793 72.9804 8.49816 72.9645 8.42961C72.9151 8.22395 72.8088 8.05093 72.6473 7.91137C72.4841 7.77182 72.2874 7.70163 72.0605 7.70163C71.7332 7.70163 71.4771 7.82813 71.2888 8.08194C71.1021 8.33575 71.0075 8.65975 71.0075 9.05556C71.0075 9.43587 71.0971 9.74436 71.2771 9.98185C71.4671 10.2348 71.7232 10.3613 72.0438 10.3613C72.3317 10.3613 72.5619 10.2561 72.7369 10.0447C72.9059 9.84964 72.9888 9.6146 72.9888 9.34038Z" fill="white"/>
<path d="M81.4002 9.00741C81.4002 9.59909 81.2269 10.0839 80.8804 10.4642C80.5171 10.8551 80.0367 11.0501 79.4348 11.0501C78.8564 11.0501 78.3952 10.8633 78.0504 10.4878C77.7072 10.1132 77.5356 9.64072 77.5356 9.07107C77.5356 8.47531 77.7122 7.98646 78.0671 7.60697C78.422 7.22748 78.8991 7.03732 79.5009 7.03732C80.0793 7.03732 80.5456 7.22421 80.8971 7.59881C81.2319 7.96279 81.4002 8.43287 81.4002 9.00741ZM80.4912 9.03516C80.4912 8.68015 80.4125 8.37574 80.256 8.12193C80.071 7.81508 79.8098 7.66165 79.4683 7.66165C79.1167 7.66165 78.8489 7.81508 78.6639 8.12193C78.5065 8.37574 78.4287 8.68505 78.4287 9.05067C78.4287 9.40568 78.5074 9.71009 78.6639 9.9639C78.8539 10.2708 79.1184 10.4242 79.4599 10.4242C79.7947 10.4242 80.0584 10.2683 80.2476 9.95574C80.4091 9.69703 80.4912 9.39017 80.4912 9.03516Z" fill="white"/>
<path d="M86.1169 10.9628H85.2405V8.75932C85.2405 8.08032 84.976 7.74082 84.4445 7.74082C84.1842 7.74082 83.9741 7.83385 83.8117 8.02074C83.6493 8.20763 83.5681 8.42798 83.5681 8.68016V10.962H82.6901V8.21498C82.6901 7.87711 82.68 7.51067 82.6591 7.11404H83.4292L83.4702 7.71552H83.4945C83.5974 7.52863 83.7498 7.37438 83.949 7.25115C84.1875 7.10752 84.4529 7.03488 84.745 7.03488C85.1125 7.03488 85.4188 7.15077 85.6624 7.38336C85.9662 7.66818 86.1169 8.09338 86.1169 8.65813V10.9628Z" fill="white"/>
<path d="M92.0205 7.75632H91.0546V9.62521C91.0546 10.1002 91.2261 10.3377 91.566 10.3377C91.7233 10.3377 91.8539 10.3246 91.9569 10.2977L91.9795 10.9465C91.8062 11.0102 91.5785 11.042 91.2981 11.042C90.9516 11.042 90.6821 10.9391 90.487 10.7335C90.2912 10.5278 90.1941 10.1818 90.1941 9.69621V7.75632H89.6174V7.11567H90.1941V6.41055L91.0537 6.15755V7.11485H92.0197V7.75632H92.0205Z" fill="white"/>
<path d="M96.6644 10.9628H95.7864V8.77564C95.7864 8.08602 95.5219 7.74081 94.992 7.74081C94.5852 7.74081 94.3073 7.94075 94.155 8.34065C94.129 8.42471 94.114 8.52754 94.114 8.64832V10.962H93.2376V5.35042H94.114V7.66899H94.1307C94.4069 7.24706 94.8028 7.0365 95.316 7.0365C95.6792 7.0365 95.9797 7.15239 96.2183 7.38498C96.5154 7.6747 96.6644 8.10561 96.6644 8.67525V10.9628Z" fill="white"/>
<path d="M101.455 8.85725C101.455 9.01068 101.443 9.13962 101.422 9.2449H98.7913C98.803 9.62521 98.9286 9.91493 99.1721 10.1157C99.3948 10.2952 99.6819 10.385 100.033 10.385C100.423 10.385 100.778 10.3246 101.097 10.203L101.235 10.7971C100.86 10.9555 100.42 11.0346 99.9104 11.0346C99.2994 11.0346 98.8181 10.8592 98.4699 10.5082C98.12 10.1573 97.9467 9.68642 97.9467 9.09555C97.9467 8.5153 98.1083 8.03216 98.4339 7.64696C98.7737 7.23564 99.2332 7.02998 99.8133 7.02998C100.381 7.02998 100.812 7.23564 101.103 7.64696C101.338 7.9734 101.455 8.37737 101.455 8.85725ZM100.618 8.63608C100.624 8.38227 100.567 8.16355 100.448 7.97911C100.295 7.74162 100.064 7.62247 99.7497 7.62247C99.4634 7.62247 99.2299 7.73836 99.0516 7.97095C98.906 8.15621 98.8197 8.37737 98.7913 8.63608H100.618Z" fill="white"/>
</svg>
