<svg width="104" height="26" viewBox="0 0 104 26" fill="none" xmlns="http://www.w3.org/2000/svg">
<path d="M11.1685 13C11.1685 8.9778 13.2813 5.2611 16.7111 3.25L11.1685 0L0.083313 6.5V19.5L11.1685 26L16.7111 22.75C13.2813 20.7389 11.1685 17.0222 11.1685 13Z" fill="#7E82EA"/>
<path d="M22.2536 0L16.7109 3.25C20.1408 5.2611 22.2536 8.9778 22.2536 13C22.2536 17.0222 20.1408 20.7389 16.7109 22.75L22.2536 26L33.3388 19.5V6.5L22.2536 0Z" fill="#7E82EA"/>
<path d="M54.0298 23.3249L51.9877 17.8376H44.155L42.1129 23.3249H38.8815L46.3006 3.79166H49.8421L57.313 23.3249H54.0298ZM45.0856 15.1335H51.0571L48.0585 7.15216L45.0857 15.1335H45.0856Z" fill="white"/>
<path d="M58.0176 17.3829V8.66666H61.0682V17.4093C61.0682 19.3784 63.4666 21.1022 63.7333 21.1022C63.9893 21.1022 67.0394 19.3784 67.0394 17.3829V8.66666H70.0896V17.3568C70.0896 20.8748 63.8474 23.2689 63.7333 23.2689C63.4666 23.2689 58.0176 20.8748 58.0176 17.3829Z" fill="white"/>
<path d="M72 15.6599C72 11.0917 75.1019 8.125 78.3333 8.125C80.4016 8.125 82.2112 9.17508 83.2192 10.9341L83.5552 8.46625H86.0885V22.8012H83.5552L83.2192 20.3333C82.2112 22.0922 80.4016 23.1424 78.3333 23.1424C75.1019 23.1424 72 20.1755 72 15.6599ZM83.1157 15.6336C83.1157 12.9033 81.3579 10.9605 79.1088 10.9605C76.808 10.9605 75.0501 12.9033 75.0501 15.6336C75.0501 18.3903 76.808 20.3069 79.1088 20.3069C81.3579 20.3069 83.1157 18.3903 83.1157 15.6336Z" fill="white"/>
<path d="M92.8645 9.57178H96.7856V12.0672H92.8645V17.9149C92.8645 18.2512 92.8848 18.5703 92.9264 18.8727C92.9675 19.1753 93.0507 19.4485 93.1744 19.6919C93.2987 19.9357 93.4763 20.133 93.7083 20.2842C93.9397 20.4355 94.2539 20.5111 94.6512 20.5111C95.3461 20.5111 95.9419 20.3012 96.4379 19.8809L97.3813 22.0235C96.9509 22.3598 96.4544 22.6075 95.8923 22.7671C95.3296 22.9266 94.7755 23.0065 94.2293 23.0065C92.8059 23.0065 91.7557 22.641 91.0773 21.91C90.3989 21.1792 90.0597 20.0322 90.0597 18.4694V12.0672H88V9.57178H90.0597V5.79089H92.864L92.8645 9.57178Z" fill="white"/>
</svg>
